<svg id="container" width="734.78125" xmlns="http://www.w3.org/2000/svg" class="classDiagram" height="728" viewBox="0 0 734.78125 728" role="graphics-document document" aria-roledescription="class"><style>#container{font-family:"trebuchet ms",verdana,arial,sans-serif;font-size:16px;fill:#333;}@keyframes edge-animation-frame{from{stroke-dashoffset:0;}}@keyframes dash{to{stroke-dashoffset:0;}}#container .edge-animation-slow{stroke-dasharray:9,5!important;stroke-dashoffset:900;animation:dash 50s linear infinite;stroke-linecap:round;}#container .edge-animation-fast{stroke-dasharray:9,5!important;stroke-dashoffset:900;animation:dash 20s linear infinite;stroke-linecap:round;}#container .error-icon{fill:#552222;}#container .error-text{fill:#552222;stroke:#552222;}#container .edge-thickness-normal{stroke-width:1px;}#container .edge-thickness-thick{stroke-width:3.5px;}#container .edge-pattern-solid{stroke-dasharray:0;}#container .edge-thickness-invisible{stroke-width:0;fill:none;}#container .edge-pattern-dashed{stroke-dasharray:3;}#container .edge-pattern-dotted{stroke-dasharray:2;}#container .marker{fill:#333333;stroke:#333333;}#container .marker.cross{stroke:#333333;}#container svg{font-family:"trebuchet ms",verdana,arial,sans-serif;font-size:16px;}#container p{margin:0;}#container g.classGroup text{fill:#9370DB;stroke:none;font-family:"trebuchet ms",verdana,arial,sans-serif;font-size:10px;}#container g.classGroup text .title{font-weight:bolder;}#container .nodeLabel,#container .edgeLabel{color:#131300;}#container .edgeLabel .label rect{fill:#ECECFF;}#container .label text{fill:#131300;}#container .labelBkg{background:#ECECFF;}#container .edgeLabel .label span{background:#ECECFF;}#container .classTitle{font-weight:bolder;}#container .node rect,#container .node circle,#container .node ellipse,#container .node polygon,#container .node path{fill:#ECECFF;stroke:#9370DB;stroke-width:1px;}#container .divider{stroke:#9370DB;stroke-width:1;}#container g.clickable{cursor:pointer;}#container g.classGroup rect{fill:#ECECFF;stroke:#9370DB;}#container g.classGroup line{stroke:#9370DB;stroke-width:1;}#container .classLabel .box{stroke:none;stroke-width:0;fill:#ECECFF;opacity:0.5;}#container .classLabel .label{fill:#9370DB;font-size:10px;}#container .relation{stroke:#333333;stroke-width:1;fill:none;}#container .dashed-line{stroke-dasharray:3;}#container .dotted-line{stroke-dasharray:1 2;}#container #compositionStart,#container .composition{fill:#333333!important;stroke:#333333!important;stroke-width:1;}#container #compositionEnd,#container .composition{fill:#333333!important;stroke:#333333!important;stroke-width:1;}#container #dependencyStart,#container .dependency{fill:#333333!important;stroke:#333333!important;stroke-width:1;}#container #dependencyStart,#container .dependency{fill:#333333!important;stroke:#333333!important;stroke-width:1;}#container #extensionStart,#container .extension{fill:transparent!important;stroke:#333333!important;stroke-width:1;}#container #extensionEnd,#container .extension{fill:transparent!important;stroke:#333333!important;stroke-width:1;}#container #aggregationStart,#container .aggregation{fill:transparent!important;stroke:#333333!important;stroke-width:1;}#container #aggregationEnd,#container .aggregation{fill:transparent!important;stroke:#333333!important;stroke-width:1;}#container #lollipopStart,#container .lollipop{fill:#ECECFF!important;stroke:#333333!important;stroke-width:1;}#container #lollipopEnd,#container .lollipop{fill:#ECECFF!important;stroke:#333333!important;stroke-width:1;}#container .edgeTerminals{font-size:11px;line-height:initial;}#container .classTitleText{text-anchor:middle;font-size:18px;fill:#333;}#container .label-icon{display:inline-block;height:1em;overflow:visible;vertical-align:-0.125em;}#container .node .label-icon path{fill:currentColor;stroke:revert;stroke-width:revert;}#container :root{--mermaid-font-family:"trebuchet ms",verdana,arial,sans-serif;}</style><g><defs><marker id="container_class-aggregationStart" class="marker aggregation class" refX="18" refY="7" markerWidth="190" markerHeight="240" orient="auto"><path d="M 18,7 L9,13 L1,7 L9,1 Z"></path></marker></defs><defs><marker id="container_class-aggregationEnd" class="marker aggregation class" refX="1" refY="7" markerWidth="20" markerHeight="28" orient="auto"><path d="M 18,7 L9,13 L1,7 L9,1 Z"></path></marker></defs><defs><marker id="container_class-extensionStart" class="marker extension class" refX="18" refY="7" markerWidth="190" markerHeight="240" orient="auto"><path d="M 1,7 L18,13 V 1 Z"></path></marker></defs><defs><marker id="container_class-extensionEnd" class="marker extension class" refX="1" refY="7" markerWidth="20" markerHeight="28" orient="auto"><path d="M 1,1 V 13 L18,7 Z"></path></marker></defs><defs><marker id="container_class-compositionStart" class="marker composition class" refX="18" refY="7" markerWidth="190" markerHeight="240" orient="auto"><path d="M 18,7 L9,13 L1,7 L9,1 Z"></path></marker></defs><defs><marker id="container_class-compositionEnd" class="marker composition class" refX="1" refY="7" markerWidth="20" markerHeight="28" orient="auto"><path d="M 18,7 L9,13 L1,7 L9,1 Z"></path></marker></defs><defs><marker id="container_class-dependencyStart" class="marker dependency class" refX="6" refY="7" markerWidth="190" markerHeight="240" orient="auto"><path d="M 5,7 L9,13 L1,7 L9,1 Z"></path></marker></defs><defs><marker id="container_class-dependencyEnd" class="marker dependency class" refX="13" refY="7" markerWidth="20" markerHeight="28" orient="auto"><path d="M 18,7 L9,13 L14,7 L9,1 Z"></path></marker></defs><defs><marker id="container_class-lollipopStart" class="marker lollipop class" refX="13" refY="7" markerWidth="190" markerHeight="240" orient="auto"><circle stroke="black" fill="transparent" cx="7" cy="7" r="6"></circle></marker></defs><defs><marker id="container_class-lollipopEnd" class="marker lollipop class" refX="1" refY="7" markerWidth="190" markerHeight="240" orient="auto"><circle stroke="black" fill="transparent" cx="7" cy="7" r="6"></circle></marker></defs><g class="root"><g class="clusters"></g><g class="edgePaths"><path d="M367.68,265.25L367.68,268.542C367.68,271.833,367.68,278.417,367.68,287.875C367.68,297.333,367.68,309.667,367.68,315.833L367.68,322" id="id_MatchNotificationService_IMatchObserver_1" class="edge-thickness-normal edge-pattern-solid relation" style=";;;" data-edge="true" data-et="edge" data-id="id_MatchNotificationService_IMatchObserver_1" data-points="W3sieCI6MzY3LjY3OTY4NzUsInkiOjI0OH0seyJ4IjozNjcuNjc5Njg3NSwieSI6Mjg1fSx7IngiOjM2Ny42Nzk2ODc1LCJ5IjozMjJ9XQ==" marker-start="url(#container_class-aggregationStart)"></path><path d="M218.338,505.352L211.196,509.96C204.053,514.568,189.769,523.784,182.627,534.559C175.484,545.333,175.484,557.667,175.484,563.833L175.484,570" id="id_IMatchObserver_ChatScreenObserver_2" class="edge-thickness-normal edge-pattern-dashed relation" style=";;;" data-edge="true" data-et="edge" data-id="id_IMatchObserver_ChatScreenObserver_2" data-points="W3sieCI6MjMyLjgzMjk3NjMxMDQ4Mzg3LCJ5Ijo0OTZ9LHsieCI6MTc1LjQ4NDM3NSwieSI6NTMzfSx7IngiOjE3NS40ODQzNzUsInkiOjU3MH1d" marker-start="url(#container_class-extensionStart)"></path><path d="M517.021,505.352L524.164,509.96C531.306,514.568,545.59,523.784,552.733,534.559C559.875,545.333,559.875,557.667,559.875,563.833L559.875,570" id="id_IMatchObserver_MapScreenObserver_3" class="edge-thickness-normal edge-pattern-dashed relation" style=";;;" data-edge="true" data-et="edge" data-id="id_IMatchObserver_MapScreenObserver_3" data-points="W3sieCI6NTAyLjUyNjM5ODY4OTUxNjEsInkiOjQ5Nn0seyJ4Ijo1NTkuODc1LCJ5Ijo1MzN9LHsieCI6NTU5Ljg3NSwieSI6NTcwfV0=" marker-start="url(#container_class-extensionStart)"></path></g><g class="edgeLabels"><g class="edgeLabel" transform="translate(367.6796875, 285)"><g class="label" data-id="id_MatchNotificationService_IMatchObserver_1" transform="translate(-33.46875, -12)"><foreignObject width="66.9375" height="24"><div xmlns="http://www.w3.org/1999/xhtml" class="labelBkg" style="display: table-cell; white-space: nowrap; line-height: 1.5; max-width: 200px; text-align: center;"><span class="edgeLabel"><p>"notifies"</p></span></div></foreignObject></g></g><g class="edgeLabel" transform="translate(175.484375, 533)"><g class="label" data-id="id_IMatchObserver_ChatScreenObserver_2" transform="translate(-70.9453125, -12)"><foreignObject width="141.890625" height="24"><div xmlns="http://www.w3.org/1999/xhtml" class="labelBkg" style="display: table-cell; white-space: nowrap; line-height: 1.5; max-width: 200px; text-align: center;"><span class="edgeLabel"><p>"implements via JS"</p></span></div></foreignObject></g></g><g class="edgeLabel" transform="translate(559.875, 533)"><g class="label" data-id="id_IMatchObserver_MapScreenObserver_3" transform="translate(-70.9453125, -12)"><foreignObject width="141.890625" height="24"><div xmlns="http://www.w3.org/1999/xhtml" class="labelBkg" style="display: table-cell; white-space: nowrap; line-height: 1.5; max-width: 200px; text-align: center;"><span class="edgeLabel"><p>"implements via JS"</p></span></div></foreignObject></g></g></g><g class="nodes"><g class="node default" id="classId-IMatchObserver-0" transform="translate(367.6796875, 409)"><g class="basic label-container"><path d="M-164.65234375 -87 L164.65234375 -87 L164.65234375 87 L-164.65234375 87" stroke="none" stroke-width="0" fill="#ECECFF" style=""></path><path d="M-164.65234375 -87 C-47.96990177810797 -87, 68.71254019378406 -87, 164.65234375 -87 M-164.65234375 -87 C-49.760059559697496 -87, 65.13222463060501 -87, 164.65234375 -87 M164.65234375 -87 C164.65234375 -34.721920274180285, 164.65234375 17.55615945163943, 164.65234375 87 M164.65234375 -87 C164.65234375 -37.70598047922682, 164.65234375 11.588039041546367, 164.65234375 87 M164.65234375 87 C77.32434338136446 87, -10.003656987271086 87, -164.65234375 87 M164.65234375 87 C85.16135370057937 87, 5.670363651158738 87, -164.65234375 87 M-164.65234375 87 C-164.65234375 45.27373185347794, -164.65234375 3.547463706955881, -164.65234375 -87 M-164.65234375 87 C-164.65234375 38.47943008839507, -164.65234375 -10.04113982320986, -164.65234375 -87" stroke="#9370DB" stroke-width="1.3" fill="none" stroke-dasharray="0 0" style=""></path></g><g class="annotation-group text" transform="translate(-41.015625, -63)"><g class="label" style="" transform="translate(0,-12)"><foreignObject width="82.03125" height="24"><div xmlns="http://www.w3.org/1999/xhtml" style="display: table-cell; white-space: nowrap; line-height: 1.5; max-width: 132px; text-align: center;"><span class="nodeLabel markdown-node-label" style=""><p>«interface»</p></span></div></foreignObject></g></g><g class="label-group text" transform="translate(-57.8671875, -39)"><g class="label" style="font-weight: bolder" transform="translate(0,-12)"><foreignObject width="115.734375" height="24"><div xmlns="http://www.w3.org/1999/xhtml" style="display: table-cell; white-space: nowrap; line-height: 1.5; max-width: 165px; text-align: center;"><span class="nodeLabel markdown-node-label" style=""><p>IMatchObserver</p></span></div></foreignObject></g></g><g class="members-group text" transform="translate(-152.65234375, 9)"></g><g class="methods-group text" transform="translate(-152.65234375, 39)"><g class="label" style="" transform="translate(0,-12)"><foreignObject width="247.4375" height="24"><div xmlns="http://www.w3.org/1999/xhtml" style="display: table-cell; white-space: nowrap; line-height: 1.5; max-width: 305px; text-align: center;"><span class="nodeLabel markdown-node-label" style=""><p>+onMatchFound(matchData) : void</p></span></div></foreignObject></g><g class="label" style="" transform="translate(0,12)"><foreignObject width="236.078125" height="24"><div xmlns="http://www.w3.org/1999/xhtml" style="display: table-cell; white-space: nowrap; line-height: 1.5; max-width: 293px; text-align: center;"><span class="nodeLabel markdown-node-label" style=""><p>+onMessageReceived(msg) : void</p></span></div></foreignObject></g></g><g class="divider" style=""><path d="M-164.65234375 -15 C-37.2439184686491 -15, 90.1645068127018 -15, 164.65234375 -15 M-164.65234375 -15 C-62.07453638238181 -15, 40.503270985236384 -15, 164.65234375 -15" stroke="#9370DB" stroke-width="1.3" fill="none" stroke-dasharray="0 0" style=""></path></g><g class="divider" style=""><path d="M-164.65234375 9 C-97.77568625961482 9, -30.89902876922963 9, 164.65234375 9 M-164.65234375 9 C-34.91118940718587 9, 94.82996493562825 9, 164.65234375 9" stroke="#9370DB" stroke-width="1.3" fill="none" stroke-dasharray="0 0" style=""></path></g></g><g class="node default" id="classId-MatchNotificationService-1" transform="translate(367.6796875, 128)"><g class="basic label-container"><path d="M-207.5 -120 L207.5 -120 L207.5 120 L-207.5 120" stroke="none" stroke-width="0" fill="#ECECFF" style=""></path><path d="M-207.5 -120 C-93.03216983507501 -120, 21.43566032984998 -120, 207.5 -120 M-207.5 -120 C-53.55755917320653 -120, 100.38488165358694 -120, 207.5 -120 M207.5 -120 C207.5 -59.17162665749289, 207.5 1.6567466850142267, 207.5 120 M207.5 -120 C207.5 -38.072277330071216, 207.5 43.85544533985757, 207.5 120 M207.5 120 C77.72146992649618 120, -52.05706014700763 120, -207.5 120 M207.5 120 C79.48365391246728 120, -48.53269217506545 120, -207.5 120 M-207.5 120 C-207.5 70.72172541204753, -207.5 21.443450824095052, -207.5 -120 M-207.5 120 C-207.5 68.78964875583286, -207.5 17.579297511665715, -207.5 -120" stroke="#9370DB" stroke-width="1.3" fill="none" stroke-dasharray="0 0" style=""></path></g><g class="annotation-group text" transform="translate(0, -96)"></g><g class="label-group text" transform="translate(-91.59375, -96)"><g class="label" style="font-weight: bolder" transform="translate(0,-12)"><foreignObject width="183.1875" height="24"><div xmlns="http://www.w3.org/1999/xhtml" style="display: table-cell; white-space: nowrap; line-height: 1.5; max-width: 231px; text-align: center;"><span class="nodeLabel markdown-node-label" style=""><p>MatchNotificationService</p></span></div></foreignObject></g></g><g class="members-group text" transform="translate(-195.5, -48)"><g class="label" style="" transform="translate(0,-12)"><foreignObject width="127.21875" height="24"><div xmlns="http://www.w3.org/1999/xhtml" style="display: table-cell; white-space: nowrap; line-height: 1.5; max-width: 185px; text-align: center;"><span class="nodeLabel markdown-node-label" style=""><p>-observers : Array</p></span></div></foreignObject></g><g class="label" style="" transform="translate(0,12)"><foreignObject width="149.640625" height="24"><div xmlns="http://www.w3.org/1999/xhtml" style="display: table-cell; white-space: nowrap; line-height: 1.5; max-width: 207px; text-align: center;"><span class="nodeLabel markdown-node-label" style=""><p>-firestoreRef : Object</p></span></div></foreignObject></g></g><g class="methods-group text" transform="translate(-195.5, 24)"><g class="label" style="" transform="translate(0,-12)"><foreignObject width="280.71875" height="24"><div xmlns="http://www.w3.org/1999/xhtml" style="display: table-cell; white-space: nowrap; line-height: 1.5; max-width: 338px; text-align: center;"><span class="nodeLabel markdown-node-label" style=""><p>+subscribe(obs: IMatchObserver) : void</p></span></div></foreignObject></g><g class="label" style="" transform="translate(0,12)"><foreignObject width="299.40625" height="24"><div xmlns="http://www.w3.org/1999/xhtml" style="display: table-cell; white-space: nowrap; line-height: 1.5; max-width: 357px; text-align: center;"><span class="nodeLabel markdown-node-label" style=""><p>+unsubscribe(obs: IMatchObserver) : void</p></span></div></foreignObject></g><g class="label" style="" transform="translate(0,36)"><foreignObject width="163.03125" height="24"><div xmlns="http://www.w3.org/1999/xhtml" style="display: table-cell; white-space: nowrap; line-height: 1.5; max-width: 220px; text-align: center;"><span class="nodeLabel markdown-node-label" style=""><p>+notifyAll(event) : void</p></span></div></foreignObject></g><g class="label" style="" transform="translate(0,60)"><foreignObject width="202.25" height="24"><div xmlns="http://www.w3.org/1999/xhtml" style="display: table-cell; white-space: nowrap; line-height: 1.5; max-width: 260px; text-align: center;"><span class="nodeLabel markdown-node-label" style=""><p>+listenToMatches(uid) : void</p></span></div></foreignObject></g></g><g class="divider" style=""><path d="M-207.5 -72 C-107.0126252288502 -72, -6.525250457700395 -72, 207.5 -72 M-207.5 -72 C-124.18334343547048 -72, -40.86668687094095 -72, 207.5 -72" stroke="#9370DB" stroke-width="1.3" fill="none" stroke-dasharray="0 0" style=""></path></g><g class="divider" style=""><path d="M-207.5 0 C-96.89987622985886 0, 13.700247540282277 0, 207.5 0 M-207.5 0 C-122.96416235702831 0, -38.42832471405663 0, 207.5 0" stroke="#9370DB" stroke-width="1.3" fill="none" stroke-dasharray="0 0" style=""></path></g></g><g class="node default" id="classId-ChatScreenObserver-2" transform="translate(175.484375, 645)"><g class="basic label-container"><path d="M-167.484375 -75 L167.484375 -75 L167.484375 75 L-167.484375 75" stroke="none" stroke-width="0" fill="#ECECFF" style=""></path><path d="M-167.484375 -75 C-87.34313996169125 -75, -7.2019049233825 -75, 167.484375 -75 M-167.484375 -75 C-66.16754913452574 -75, 35.149276730948515 -75, 167.484375 -75 M167.484375 -75 C167.484375 -26.363593931427978, 167.484375 22.272812137144044, 167.484375 75 M167.484375 -75 C167.484375 -35.247291748625805, 167.484375 4.505416502748389, 167.484375 75 M167.484375 75 C98.33749464863139 75, 29.190614297262783 75, -167.484375 75 M167.484375 75 C43.338278520841925 75, -80.80781795831615 75, -167.484375 75 M-167.484375 75 C-167.484375 44.88635238550384, -167.484375 14.772704771007675, -167.484375 -75 M-167.484375 75 C-167.484375 26.221425363607096, -167.484375 -22.557149272785807, -167.484375 -75" stroke="#9370DB" stroke-width="1.3" fill="none" stroke-dasharray="0 0" style=""></path></g><g class="annotation-group text" transform="translate(0, -51)"></g><g class="label-group text" transform="translate(-74.890625, -51)"><g class="label" style="font-weight: bolder" transform="translate(0,-12)"><foreignObject width="149.78125" height="24"><div xmlns="http://www.w3.org/1999/xhtml" style="display: table-cell; white-space: nowrap; line-height: 1.5; max-width: 198px; text-align: center;"><span class="nodeLabel markdown-node-label" style=""><p>ChatScreenObserver</p></span></div></foreignObject></g></g><g class="members-group text" transform="translate(-155.484375, -3)"></g><g class="methods-group text" transform="translate(-155.484375, 27)"><g class="label" style="" transform="translate(0,-12)"><foreignObject width="201.875" height="24"><div xmlns="http://www.w3.org/1999/xhtml" style="display: table-cell; white-space: nowrap; line-height: 1.5; max-width: 259px; text-align: center;"><span class="nodeLabel markdown-node-label" style=""><p>+onMatchFound(data) : void</p></span></div></foreignObject></g><g class="label" style="" transform="translate(0,12)"><foreignObject width="236.078125" height="24"><div xmlns="http://www.w3.org/1999/xhtml" style="display: table-cell; white-space: nowrap; line-height: 1.5; max-width: 293px; text-align: center;"><span class="nodeLabel markdown-node-label" style=""><p>+onMessageReceived(msg) : void</p></span></div></foreignObject></g></g><g class="divider" style=""><path d="M-167.484375 -27 C-91.3851022540332 -27, -15.2858295080664 -27, 167.484375 -27 M-167.484375 -27 C-53.30855727627093 -27, 60.867260447458136 -27, 167.484375 -27" stroke="#9370DB" stroke-width="1.3" fill="none" stroke-dasharray="0 0" style=""></path></g><g class="divider" style=""><path d="M-167.484375 -3 C-80.4806637838974 -3, 6.523047432205203 -3, 167.484375 -3 M-167.484375 -3 C-90.30284648428955 -3, -13.121317968579092 -3, 167.484375 -3" stroke="#9370DB" stroke-width="1.3" fill="none" stroke-dasharray="0 0" style=""></path></g></g><g class="node default" id="classId-MapScreenObserver-3" transform="translate(559.875, 645)"><g class="basic label-container"><path d="M-166.90625 -75 L166.90625 -75 L166.90625 75 L-166.90625 75" stroke="none" stroke-width="0" fill="#ECECFF" style=""></path><path d="M-166.90625 -75 C-65.43269382823144 -75, 36.04086234353713 -75, 166.90625 -75 M-166.90625 -75 C-53.80246606523569 -75, 59.30131786952862 -75, 166.90625 -75 M166.90625 -75 C166.90625 -26.546782680643865, 166.90625 21.90643463871227, 166.90625 75 M166.90625 -75 C166.90625 -36.81653092944263, 166.90625 1.366938141114744, 166.90625 75 M166.90625 75 C74.64461056431043 75, -17.617028871379148 75, -166.90625 75 M166.90625 75 C77.47783690808102 75, -11.950576183837967 75, -166.90625 75 M-166.90625 75 C-166.90625 34.47018994202543, -166.90625 -6.059620115949144, -166.90625 -75 M-166.90625 75 C-166.90625 37.818868900360386, -166.90625 0.637737800720771, -166.90625 -75" stroke="#9370DB" stroke-width="1.3" fill="none" stroke-dasharray="0 0" style=""></path></g><g class="annotation-group text" transform="translate(0, -51)"></g><g class="label-group text" transform="translate(-73.734375, -51)"><g class="label" style="font-weight: bolder" transform="translate(0,-12)"><foreignObject width="147.46875" height="24"><div xmlns="http://www.w3.org/1999/xhtml" style="display: table-cell; white-space: nowrap; line-height: 1.5; max-width: 196px; text-align: center;"><span class="nodeLabel markdown-node-label" style=""><p>MapScreenObserver</p></span></div></foreignObject></g></g><g class="members-group text" transform="translate(-154.90625, -3)"></g><g class="methods-group text" transform="translate(-154.90625, 27)"><g class="label" style="" transform="translate(0,-12)"><foreignObject width="201.875" height="24"><div xmlns="http://www.w3.org/1999/xhtml" style="display: table-cell; white-space: nowrap; line-height: 1.5; max-width: 259px; text-align: center;"><span class="nodeLabel markdown-node-label" style=""><p>+onMatchFound(data) : void</p></span></div></foreignObject></g><g class="label" style="" transform="translate(0,12)"><foreignObject width="236.078125" height="24"><div xmlns="http://www.w3.org/1999/xhtml" style="display: table-cell; white-space: nowrap; line-height: 1.5; max-width: 293px; text-align: center;"><span class="nodeLabel markdown-node-label" style=""><p>+onMessageReceived(msg) : void</p></span></div></foreignObject></g></g><g class="divider" style=""><path d="M-166.90625 -27 C-50.05859265028674 -27, 66.78906469942652 -27, 166.90625 -27 M-166.90625 -27 C-41.21232649131184 -27, 84.48159701737632 -27, 166.90625 -27" stroke="#9370DB" stroke-width="1.3" fill="none" stroke-dasharray="0 0" style=""></path></g><g class="divider" style=""><path d="M-166.90625 -3 C-89.43879537469617 -3, -11.97134074939234 -3, 166.90625 -3 M-166.90625 -3 C-57.64880224559809 -3, 51.60864550880382 -3, 166.90625 -3" stroke="#9370DB" stroke-width="1.3" fill="none" stroke-dasharray="0 0" style=""></path></g></g></g></g></g></svg>